<?xml version="1.0" encoding="UTF-8"?>
<svg xmlns="http://www.w3.org/2000/svg" xmlns:xlink="http://www.w3.org/1999/xlink" width="22pt" height="22pt" viewBox="0 0 22 22" version="1.1">
<defs>
<linearGradient id="linear0" gradientUnits="userSpaceOnUse" x1="0.710046" y1="1" x2="0" y2="1" gradientTransform="matrix(1.500202,0,0,0.878557,6.982422,7.174246)">
<stop offset="0" style="stop-color:rgb(22.352941%,29.019608%,62.352941%);stop-opacity:1;"/>
<stop offset="1" style="stop-color:rgb(38.039216%,46.27451%,72.54902%);stop-opacity:1;"/>
</linearGradient>
<linearGradient id="linear1" gradientUnits="userSpaceOnUse" x1="0.710046" y1="1" x2="0" y2="1" gradientTransform="matrix(1.411301,0,0,0.494908,11.812702,6.855818)">
<stop offset="0" style="stop-color:rgb(22.352941%,29.019608%,62.352941%);stop-opacity:1;"/>
<stop offset="1" style="stop-color:rgb(38.039216%,46.27451%,72.54902%);stop-opacity:1;"/>
</linearGradient>
</defs>
<g id="surface1">
<path style=" stroke:none;fill-rule:nonzero;fill:rgb(87.058824%,34.509804%,20%);fill-opacity:1;" d="M 10.917969 1.597656 C 16.027344 1.597656 20.171875 5.714844 20.171875 10.804688 C 20.171875 15.886719 16.027344 20.007812 10.917969 20.007812 C 5.804688 20.007812 1.664062 15.886719 1.664062 10.804688 C 1.664062 5.714844 5.804688 1.597656 10.917969 1.597656 "/>
<path style=" stroke:none;fill-rule:nonzero;fill:rgb(87.058824%,34.509804%,20%);fill-opacity:1;" d="M 10.917969 21.597656 C 16.914062 21.597656 21.773438 16.765625 21.773438 10.804688 C 21.773438 4.835938 16.914062 0.00390625 10.917969 0.00390625 C 4.917969 0.00390625 0.0585938 4.835938 0.0585938 10.804688 C 0.0585938 16.765625 4.917969 21.597656 10.917969 21.597656 Z M 10.917969 20.703125 C 5.417969 20.703125 0.964844 16.269531 0.964844 10.804688 C 0.964844 5.335938 5.417969 0.902344 10.917969 0.902344 C 16.414062 0.902344 20.871094 5.335938 20.871094 10.804688 C 20.871094 16.269531 16.414062 20.703125 10.917969 20.703125 Z M 10.917969 20.703125 "/>
<path style=" stroke:none;fill-rule:nonzero;fill:rgb(83.529412%,84.313725%,84.705882%);fill-opacity:1;" d="M 6.410156 4.589844 C 6.410156 4.429688 6.519531 4.347656 6.671875 4.285156 C 6.601562 4.296875 6.535156 4.3125 6.476562 4.339844 C 6.320312 4.40625 6.199219 4.675781 6.203125 4.804688 C 6.964844 4.726562 8.085938 4.78125 8.910156 5.027344 C 8.972656 5.015625 9.03125 5.007812 9.09375 5 C 8.269531 4.636719 7.296875 4.496094 6.410156 4.589844 "/>
<path style=" stroke:none;fill-rule:nonzero;fill:rgb(83.529412%,84.313725%,84.705882%);fill-opacity:1;" d="M 6.5625 3.65625 C 6.582031 3.652344 6.597656 3.652344 6.617188 3.648438 C 6.453125 3.667969 6.363281 3.726562 6.242188 3.75 C 6.375 3.761719 6.882812 3.992188 7.199219 4.125 C 7.246094 4.105469 7.285156 4.085938 7.320312 4.066406 C 7.152344 4.039062 6.742188 3.671875 6.5625 3.65625 "/>
<path style=" stroke:none;fill-rule:nonzero;fill:rgb(83.529412%,84.313725%,84.705882%);fill-opacity:1;" d="M 7.351562 5.484375 C 7.308594 5.503906 7.269531 5.523438 7.226562 5.542969 C 5.988281 6.191406 5.441406 7.707031 5.765625 9.527344 C 6.066406 11.179688 7.285156 16.832031 7.84375 19.488281 C 8.007812 19.542969 8.171875 19.597656 8.34375 19.648438 C 7.839844 17.253906 6.484375 10.984375 6.167969 9.222656 C 5.84375 7.429688 6.160156 6.144531 7.351562 5.484375 "/>
<path style=" stroke:none;fill-rule:nonzero;fill:rgb(100%,100%,100%);fill-opacity:1;" d="M 12.367188 18.523438 C 12.351562 18.539062 12.324219 18.550781 12.296875 18.566406 C 12.28125 18.636719 12.25 18.695312 12.207031 18.722656 C 11.949219 18.890625 11.226562 18.976562 10.847656 18.890625 C 10.777344 18.875 10.730469 18.851562 10.691406 18.816406 C 10.042969 19.179688 9.105469 19.65625 8.914062 19.550781 C 8.617188 19.382812 8.570312 17.136719 8.617188 16.589844 C 8.644531 16.175781 10.113281 16.847656 10.828125 17.199219 C 10.984375 17.054688 11.371094 16.953125 11.710938 16.921875 C 11.199219 15.671875 10.816406 14.242188 11.050781 13.222656 C 10.726562 13 10.296875 12.484375 10.386719 11.941406 C 10.457031 11.527344 11.527344 10.75 12.285156 10.699219 C 13.046875 10.652344 13.285156 10.664062 13.917969 10.515625 C 13.945312 10.507812 13.984375 10.496094 14.019531 10.488281 C 14.410156 9.128906 13.472656 6.757812 12.429688 5.714844 C 12.089844 5.378906 11.566406 5.167969 10.980469 5.050781 C 10.753906 4.746094 10.386719 4.449219 9.867188 4.175781 C 8.910156 3.667969 7.722656 3.460938 6.617188 3.648438 C 6.597656 3.652344 6.582031 3.652344 6.5625 3.65625 C 6.742188 3.671875 7.152344 4.039062 7.320312 4.066406 C 7.285156 4.085938 7.246094 4.105469 7.199219 4.125 C 7.046875 4.183594 6.835938 4.214844 6.671875 4.285156 C 6.519531 4.347656 6.410156 4.429688 6.410156 4.589844 C 7.296875 4.496094 8.269531 4.636719 9.09375 5 C 9.03125 5.007812 8.972656 5.015625 8.910156 5.027344 C 8.328125 5.105469 7.792969 5.257812 7.410156 5.460938 C 7.390625 5.46875 7.371094 5.480469 7.351562 5.484375 C 6.160156 6.144531 5.84375 7.429688 6.167969 9.222656 C 6.484375 10.984375 7.851562 17.347656 8.347656 19.742188 C 9.167969 19.976562 9.929688 20.167969 10.828125 20.167969 C 11.585938 20.167969 12.496094 20 13.207031 19.828125 C 12.957031 19.351562 12.640625 18.824219 12.441406 18.449219 C 12.417969 18.480469 12.394531 18.507812 12.367188 18.523438 Z M 12.867188 9.496094 C 12.546875 9.496094 12.28125 9.234375 12.28125 8.910156 C 12.28125 8.585938 12.546875 8.324219 12.867188 8.324219 C 13.195312 8.324219 13.457031 8.585938 13.457031 8.910156 C 13.457031 9.234375 13.195312 9.496094 12.867188 9.496094 Z M 13.222656 7.292969 C 13.222656 7.292969 12.855469 7.082031 12.566406 7.082031 C 11.972656 7.089844 11.8125 7.351562 11.8125 7.351562 C 11.8125 7.351562 11.914062 6.734375 12.667969 6.855469 C 13.078125 6.925781 13.222656 7.292969 13.222656 7.292969 Z M 6.980469 8.054688 C 6.980469 8.054688 6.714844 7.460938 7.425781 7.175781 C 8.136719 6.882812 8.484375 7.339844 8.484375 7.339844 C 8.484375 7.339844 7.96875 7.105469 7.464844 7.417969 C 6.964844 7.734375 6.980469 8.054688 6.980469 8.054688 Z M 7.605469 9.3125 C 7.605469 8.933594 7.914062 8.632812 8.289062 8.632812 C 8.667969 8.632812 8.976562 8.933594 8.976562 9.3125 C 8.976562 9.691406 8.667969 9.992188 8.289062 9.992188 C 7.914062 9.992188 7.605469 9.691406 7.605469 9.3125 Z M 7.605469 9.3125 "/>
<path style=" stroke:none;fill-rule:nonzero;fill:rgb(17.647059%,30.980392%,55.686275%);fill-opacity:1;" d="M 8.976562 9.3125 C 8.976562 8.933594 8.667969 8.632812 8.289062 8.632812 C 7.914062 8.632812 7.605469 8.933594 7.605469 9.3125 C 7.605469 9.691406 7.914062 9.992188 8.289062 9.992188 C 8.667969 9.992188 8.976562 9.691406 8.976562 9.3125 Z M 8.59375 9.261719 C 8.496094 9.261719 8.414062 9.183594 8.414062 9.085938 C 8.414062 8.988281 8.492188 8.910156 8.59375 8.910156 C 8.691406 8.910156 8.773438 8.988281 8.773438 9.085938 C 8.773438 9.183594 8.691406 9.261719 8.59375 9.261719 Z M 8.59375 9.261719 "/>
<path style=" stroke:none;fill-rule:nonzero;fill:rgb(100%,100%,100%);fill-opacity:1;" d="M 8.59375 8.910156 C 8.492188 8.910156 8.414062 8.988281 8.414062 9.085938 C 8.414062 9.183594 8.496094 9.261719 8.59375 9.261719 C 8.691406 9.261719 8.773438 9.183594 8.773438 9.085938 C 8.773438 8.988281 8.691406 8.910156 8.59375 8.910156 "/>
<path style=" stroke:none;fill-rule:nonzero;fill:rgb(17.647059%,30.980392%,55.686275%);fill-opacity:1;" d="M 12.867188 8.324219 C 12.546875 8.324219 12.28125 8.585938 12.28125 8.910156 C 12.28125 9.234375 12.546875 9.496094 12.867188 9.496094 C 13.195312 9.496094 13.457031 9.234375 13.457031 8.910156 C 13.457031 8.585938 13.195312 8.324219 12.867188 8.324219 Z M 13.132812 8.867188 C 13.046875 8.867188 12.980469 8.796875 12.980469 8.710938 C 12.980469 8.632812 13.046875 8.5625 13.132812 8.5625 C 13.214844 8.5625 13.285156 8.632812 13.285156 8.710938 C 13.285156 8.796875 13.214844 8.867188 13.132812 8.867188 Z M 13.132812 8.867188 "/>
<path style=" stroke:none;fill-rule:nonzero;fill:rgb(100%,100%,100%);fill-opacity:1;" d="M 13.132812 8.5625 C 13.046875 8.5625 12.980469 8.632812 12.980469 8.710938 C 12.980469 8.796875 13.046875 8.867188 13.132812 8.867188 C 13.214844 8.867188 13.285156 8.796875 13.285156 8.710938 C 13.285156 8.632812 13.214844 8.5625 13.132812 8.5625 "/>
<path style=" stroke:none;fill-rule:nonzero;fill:url(#linear0);" d="M 8.484375 7.339844 C 8.484375 7.339844 8.136719 6.882812 7.425781 7.175781 C 6.714844 7.460938 6.980469 8.054688 6.980469 8.054688 C 6.980469 8.054688 6.964844 7.734375 7.464844 7.417969 C 7.96875 7.105469 8.484375 7.339844 8.484375 7.339844 "/>
<path style=" stroke:none;fill-rule:nonzero;fill:url(#linear1);" d="M 12.667969 6.855469 C 11.914062 6.734375 11.8125 7.351562 11.8125 7.351562 C 11.8125 7.351562 11.972656 7.089844 12.566406 7.082031 C 12.855469 7.082031 13.222656 7.292969 13.222656 7.292969 C 13.222656 7.292969 13.078125 6.925781 12.667969 6.855469 "/>
<path style=" stroke:none;fill-rule:nonzero;fill:rgb(99.215686%,82.352941%,3.529412%);fill-opacity:1;" d="M 12.285156 10.699219 C 11.527344 10.75 10.457031 11.527344 10.386719 11.941406 C 10.296875 12.484375 10.726562 13 11.050781 13.222656 C 11.050781 13.226562 11.050781 13.226562 11.050781 13.226562 C 11.375 13.449219 13.523438 14.171875 14.589844 14.152344 C 15.65625 14.128906 17.410156 13.480469 17.21875 12.960938 C 17.027344 12.4375 15.285156 13.421875 13.46875 13.25 C 12.125 13.128906 11.886719 12.53125 12.183594 12.09375 C 12.558594 11.539062 13.242188 12.195312 14.367188 11.863281 C 15.496094 11.527344 17.070312 10.929688 17.652344 10.605469 C 19.007812 9.851562 17.085938 9.542969 16.636719 9.753906 C 16.207031 9.949219 14.714844 10.324219 14.019531 10.488281 C 13.984375 10.496094 13.945312 10.507812 13.917969 10.515625 C 13.285156 10.664062 13.046875 10.652344 12.285156 10.699219 "/>
<path style=" stroke:none;fill-rule:nonzero;fill:rgb(39.607843%,73.72549%,27.45098%);fill-opacity:1;" d="M 10.589844 17.535156 C 10.589844 17.460938 10.652344 17.390625 10.753906 17.332031 C 10.757812 17.285156 10.78125 17.242188 10.828125 17.199219 C 10.113281 16.847656 8.644531 16.175781 8.617188 16.589844 C 8.570312 17.136719 8.617188 19.382812 8.914062 19.550781 C 9.105469 19.65625 10.042969 19.179688 10.691406 18.816406 C 10.503906 18.660156 10.589844 18.273438 10.589844 17.535156 "/>
<path style=" stroke:none;fill-rule:nonzero;fill:rgb(39.607843%,73.72549%,27.45098%);fill-opacity:1;" d="M 12.429688 18.445312 C 12.433594 18.445312 12.4375 18.449219 12.441406 18.449219 C 13.023438 18.671875 14.1875 19.09375 14.4375 19.003906 C 14.78125 18.871094 14.695312 16.167969 14.3125 16.082031 C 14.007812 16.011719 12.835938 16.835938 12.375 17.167969 C 12.457031 17.511719 12.558594 18.1875 12.429688 18.445312 "/>
<path style=" stroke:none;fill-rule:nonzero;fill:rgb(26.27451%,63.529412%,26.666667%);fill-opacity:1;" d="M 11.007812 18.691406 C 10.628906 18.605469 10.753906 18.226562 10.753906 17.339844 C 10.753906 17.335938 10.753906 17.332031 10.753906 17.332031 C 10.652344 17.390625 10.589844 17.460938 10.589844 17.535156 C 10.589844 18.273438 10.503906 18.660156 10.691406 18.816406 C 10.730469 18.851562 10.777344 18.875 10.847656 18.890625 C 11.226562 18.976562 11.949219 18.890625 12.207031 18.722656 C 12.25 18.695312 12.28125 18.636719 12.296875 18.566406 C 11.996094 18.707031 11.359375 18.773438 11.007812 18.691406 "/>
<path style=" stroke:none;fill-rule:nonzero;fill:rgb(39.607843%,73.72549%,27.45098%);fill-opacity:1;" d="M 10.828125 17.199219 C 10.78125 17.242188 10.757812 17.285156 10.753906 17.332031 C 10.753906 17.332031 10.753906 17.335938 10.753906 17.339844 C 10.753906 18.226562 10.628906 18.605469 11.007812 18.691406 C 11.359375 18.773438 11.996094 18.707031 12.296875 18.566406 C 12.324219 18.550781 12.351562 18.539062 12.367188 18.523438 C 12.394531 18.507812 12.417969 18.480469 12.429688 18.445312 C 12.558594 18.1875 12.457031 17.511719 12.375 17.167969 C 12.355469 17.09375 12.339844 17.035156 12.328125 17 C 12.289062 16.914062 12.019531 16.890625 11.710938 16.921875 C 11.371094 16.953125 10.984375 17.054688 10.828125 17.199219 "/>
</g>
</svg>
